<?xml version="1.0" encoding="UTF-8"?>
<svg id="_レイヤー_1" data-name="レイヤー_1" xmlns="http://www.w3.org/2000/svg" viewBox="0 0 45 45">
  <defs>
    <style>
      .cls-1 {
        fill: #ff4545;
      }

      .cls-2 {
        fill: #fff;
      }

      .cls-3, .cls-4 {
        isolation: isolate;
      }

      .cls-4 {
        fill: #c2c2c2;
        mix-blend-mode: multiply;
      }
    </style>
  </defs>
  <g class="cls-3">
    <g id="_レイヤー_1-2" data-name="_レイヤー_1">
      <path class="cls-1" d="M45,22.5c0,10.84-7.66,19.89-17.87,22.03-1.49.31-3.05.48-4.63.48-12.43,0-22.5-10.08-22.5-22.5S10.07,0,22.5,0s22.04,9.61,22.49,21.65c0,.28.01.56.01.85h0Z"/>
      <path class="cls-4" d="M45,22.5c0,10.84-7.66,19.89-17.87,22.03l-4.09-4.09h-.02s-6.69-6.71-6.69-6.71l-7.9-7.9c-1.44-1.44-1.44-3.76,0-5.19.09-.09.18-.17.27-.25,1.44-1.18,3.57-1.1,4.92.25l5.3,5.3,12.57-12.57c.09-.09.18-.17.27-.25,1.44-1.18,3.58-1.1,4.92.25,0,0,4.34,4.34,8.29,8.29,0,.28.01.56.01.85h0Z"/>
      <path class="cls-2" d="M36.7,13.36c-1.44-1.44-3.76-1.44-5.19,0l-12.57,12.57-5.3-5.3c-1.44-1.44-3.76-1.44-5.19,0s-1.44,3.76,0,5.19l7.9,7.9c.69.69,1.62,1.08,2.6,1.08s1.91-.39,2.6-1.08l15.17-15.17c1.44-1.44,1.44-3.76,0-5.19h0Z"/>
    </g>
  </g>
</svg>