<?xml version="1.0" encoding="UTF-8"?>
<svg id="_レイヤー_1" xmlns="http://www.w3.org/2000/svg" viewBox="0 0 345.59 40.02">
  <defs>
    <style>
      .cls-1 {
        fill: #fff;
      }
    </style>
  </defs>
  <path class="cls-1" d="M5.25,15.46H0V6.85h15.42v-.98H3.03V1.56h30.67v4.3h-12.46v.98h15.74v8.61h-5.49v-4.76h-10.25v8.12h-5.82v-8.12H5.25v4.76ZM30.71,34.73c1.97,0,2.38-.57,2.67-3.69,1.19.82,3.4,1.56,4.92,1.85-.66,4.96-2.25,6.31-7.09,6.31h-8.12c-6.07,0-7.87-1.31-8-5.74h-5.49v1.64H3.9v-15.33h28.95v13.69h-12.01c.08,1.11.7,1.27,2.83,1.27h7.05ZM5.78,15.62h8.53v3.12H5.78v-3.12ZM14.31,14.68h-7.79v-3.08h7.79v3.08ZM9.59,23.66v1.27h5.49v-1.27h-5.49ZM9.59,29.56h5.49v-1.23h-5.49v1.23ZM26.94,23.66h-6.15v1.27h6.15v-1.27ZM26.94,29.56v-1.23h-6.15v1.23h6.15ZM30.01,11.6v3.08h-7.59v-3.08h7.59ZM22.43,15.62h8.53v3.12h-8.53v-3.12Z"/>
  <path class="cls-1" d="M72.16,16.2c-.16,9.47.33,17.14,2.3,17.14.53-.04.7-2.13.74-5.37,1.15,1.39,2.58,2.91,3.81,3.81-.41,5.12-1.48,7.5-4.96,7.5-6.31,0-7.67-7.91-7.95-18.12h-7.91l5.58,1.8c-1.11,2.09-2.42,4.06-3.9,5.86,2.42,1.64,4.55,3.24,6.03,4.71l-4.76,4.55c-1.31-1.44-3.28-3.08-5.54-4.76-3.07,2.75-6.48,5-10.04,6.68-.9-1.23-3.08-3.57-4.39-4.63,3.49-1.31,6.77-3.2,9.55-5.45-2.17-1.39-4.35-2.71-6.35-3.81l4.26-3.94c1.93.98,4.14,2.21,6.31,3.53,1.15-1.44,2.13-2.95,2.95-4.55h-13.08v-3.57c-1.27-1.07-3.85-2.79-5.29-3.61,4.14-2.99,7.26-8.28,8.73-13.98l6.27,1.35c-.25.9-.53,1.76-.86,2.62h23.53v4.88h-25.67c-.2.41-.41.82-.66,1.23h22.71v4.76h-23.82v-2.87c-.98,1.56-2.09,2.99-3.24,4.22h25.63Z"/>
  <path class="cls-1" d="M119.47,30.5v6.03h-37.84v-6.03h15.21V10.54h-12.87v-6.23h33.05v6.23h-13.33v19.97h15.79Z"/>
  <path class="cls-1" d="M160.68,27.88h-4.31v7.13h-6.07v-1.68h-5.99v.49c0,2.71-.61,3.85-2.38,4.67-1.76.74-4.02.82-7.54.82-.29-1.35-1.19-3.4-1.93-4.59,1.68.08,4.1.08,4.76.08.78-.04,1.02-.29,1.02-.98v-.49h-12.01v-4.22h12.01v-1.23h-15.99v-4.47h15.99v-1.11h-11.73v-3.94h11.73v-1.23h-10.82v-8.69h10.82v-1.23h-14.97V2.58h14.97V.25h6.07v2.34h15.33v4.63h-15.33v1.23h11.32v8.69h-11.32v1.23h12.05v5.04h4.31v4.47ZM138.25,13.49v-1.39h-5.12v1.39h5.12ZM144.32,12.1v1.39h5.21v-1.39h-5.21ZM144.32,23.41h5.99v-1.11h-5.99v1.11ZM150.31,27.88h-5.99v1.23h5.99v-1.23Z"/>
  <path class="cls-1" d="M177.94,19.72c0,3.16-2.58,5.74-5.74,5.74s-5.74-2.58-5.74-5.74,2.58-5.74,5.74-5.74,5.74,2.58,5.74,5.74Z"/>
  <path class="cls-1" d="M221.03,19.06c-2.21,1.64-4.76,3.28-7.01,4.51,2.09,3.32,4.8,5.99,8.36,7.67-1.35,1.19-3.24,3.57-4.14,5.21-7.13-4.14-10.78-11.56-13.08-21.03-.9.74-1.84,1.44-2.91,2.09,7.63,6.81,7.13,16.85,2.99,19.84-1.64,1.48-3.08,1.93-5.41,1.93-1.02.04-2.25,0-3.44-.08-.08-1.44-.49-3.48-1.31-5.08-2.62,1.31-5.33,2.42-7.79,3.28-.7-1.48-1.97-3.61-3.12-4.92,5.86-1.39,12.79-4.51,16.89-7.71-.12-.25-.25-.49-.41-.78-3.44,2.21-8.28,4.51-12.05,5.82-.66-1.31-1.89-3.32-2.95-4.47,4.06-.9,9.31-2.87,12.34-4.8-.16-.16-.37-.33-.53-.49-3.08,1.35-6.35,2.46-9.55,3.28-.57-1.15-2.05-3.53-2.99-4.63,3.9-.7,7.91-1.8,11.28-3.28h-4.06v-5h21.61v5h-3.24c.33,1.19.74,2.34,1.19,3.44,1.72-1.19,3.44-2.62,4.67-3.81l4.67,4.02ZM191.14,13.12h-5.82V3.28h14.51V.29h6.15v2.99h14.72v9.84h-6.11v-4.47h-23.45v4.47ZM202.13,30.01c-1.84,1.27-3.94,2.5-6.11,3.61.98.08,1.89.08,2.67.08.98,0,1.72-.12,2.34-.9.57-.49,1.03-1.48,1.11-2.79Z"/>
  <path class="cls-1" d="M230.75,15.46h-5.25V6.85h15.42v-.98h-12.38V1.56h30.67v4.3h-12.46v.98h15.74v8.61h-5.49v-4.76h-10.25v8.12h-5.82v-8.12h-10.17v4.76ZM256.21,34.73c1.97,0,2.38-.57,2.66-3.69,1.19.82,3.4,1.56,4.92,1.85-.66,4.96-2.26,6.31-7.09,6.31h-8.12c-6.07,0-7.87-1.31-8-5.74h-5.49v1.64h-5.7v-15.33h28.95v13.69h-12.01c.08,1.11.7,1.27,2.83,1.27h7.05ZM231.28,15.62h8.53v3.12h-8.53v-3.12ZM239.81,14.68h-7.79v-3.08h7.79v3.08ZM235.1,23.66v1.27h5.49v-1.27h-5.49ZM235.1,29.56h5.49v-1.23h-5.49v1.23ZM252.44,23.66h-6.15v1.27h6.15v-1.27ZM252.44,29.56v-1.23h-6.15v1.23h6.15ZM255.51,11.6v3.08h-7.58v-3.08h7.58ZM247.93,15.62h8.53v3.12h-8.53v-3.12Z"/>
  <path class="cls-1" d="M276.55,32.31V5.9c-.49,1.27-1.02,2.58-1.6,3.85v29.4h-5.66v-19.23c-.57.86-1.19,1.64-1.8,2.34-.45-1.48-1.89-4.96-2.79-6.56,3.16-3.73,6.07-9.55,7.75-15.38l5.49,1.64c-.41,1.23-.86,2.5-1.31,3.77h5.04v3.24c2.34-2.38,4.22-5.49,5.33-8.77l5.37,1.31c-.33.9-.7,1.8-1.11,2.71h12.63v4.67h-2.91c-1.11,2.09-2.42,3.9-4.02,5.49,2.42,1.02,5.17,1.85,8.28,2.3-1.07,1.11-2.54,3.32-3.24,4.76-3.53-.78-6.6-2.05-9.27-3.61-2.58,1.64-5.49,2.91-8.73,3.9-.45-.82-1.44-2.13-2.34-3.2v13.78h-5.12ZM304.3,29.77c-4.39,5.12-11.48,7.71-19.72,9.27-.61-1.44-1.84-3.4-2.99-4.63,7.26-.94,14.19-2.95,17.63-6.68l5.08,2.05ZM281.67,16.97c2.42-.62,4.63-1.44,6.6-2.46-.82-.74-1.56-1.52-2.21-2.34-.57.61-1.15,1.19-1.72,1.72-.61-.57-1.64-1.44-2.67-2.21v5.29ZM296.96,21.12c-2.62,2.58-6.6,4.43-10.41,5.62-.7-1.07-1.97-2.46-3.08-3.36,3.32-.78,7.22-2.3,9.18-4.02l4.31,1.76ZM300.94,24.68c-3.36,3.65-8.82,6.03-14.55,7.46-.62-1.11-1.76-2.71-2.79-3.69,5.08-.94,10.46-2.83,13.12-5.49l4.22,1.72ZM289.09,8.9c.86.98,1.93,1.97,3.16,2.87.98-.86,1.8-1.8,2.5-2.87h-5.66Z"/>
  <path class="cls-1" d="M321.32,31.16c-4.63,1.6-9.72,3.24-13.82,4.55l-1.31-6.07c1.35-.33,2.95-.78,4.71-1.27v-8.77h-3.85v-5.45h3.85v-6.27h-4.22V2.38h14.06v5.49h-4.18v6.27h3.44v5.45h-3.44v7.09c1.23-.41,2.5-.78,3.73-1.19l1.03,5.66ZM345.59,32.55v5.37h-26.4v-5.37h10.7v-2.95h-8v-5.33h8v-2.79h-7.87V1.89h21.85v19.6h-7.87v2.79h8.24v5.33h-8.24v2.95h9.59ZM327.39,9.35h3.07v-2.46h-3.07v2.46ZM327.39,16.48h3.07v-2.5h-3.07v2.5ZM338.21,6.89h-2.79v2.46h2.79v-2.46ZM338.21,13.98h-2.79v2.5h2.79v-2.5Z"/>
</svg>