<?xml version="1.0" encoding="UTF-8"?>
<svg id="_レイヤー_1" xmlns="http://www.w3.org/2000/svg" viewBox="0 0 673.82 148.4">
  <defs>
    <style>
      .cls-1 {
        fill: #fff;
      }

      .cls-2 {
        fill: #ffff32;
      }
    </style>
  </defs>
  <g>
    <path class="cls-2" d="M54.54,6.34c-4.12,11.1-9.35,22.36-15.22,32.98v108.61h-19.03v-79.27c-3.33,3.96-6.66,7.93-9.83,11.42-1.74-4.6-7.13-15.38-10.46-20.14C14.43,45.66,28.22,23.15,36.15.63l18.39,5.71ZM104.8,43.76v16.65h41.06v17.12h-41.06v17.92h43.12v17.44h-43.12v35.2h-19.34V43.76h-6.02c-6.34,11.73-13.64,22.51-20.77,30.76-3.01-3.49-10.46-10.15-14.43-13.16,13.95-14.27,26.48-37.1,33.61-59.77l18.23,4.6c-2.22,6.66-4.76,13.16-7.77,19.66h61.52v17.92h-45.03Z"/>
    <path class="cls-2" d="M258.75,111.93c13.48,8.24,31.87,14.43,50.26,17.28-4.28,4.12-9.83,12.05-12.68,17.12-19.5-4.91-38.68-14.43-53.27-26.79v28.54h-18.55v-27.59c-14.74,11.57-34.25,20.77-53.11,25.69-2.7-4.6-8.09-11.89-12.05-15.7,17.76-3.65,36.47-10.31,50.1-18.55h-45.5v-15.54h60.57v-6.98h-45.66v-13.64h45.66v-7.13h-53.59v-14.75h30.12c-1.27-3.96-3.33-8.72-5.39-12.37l1.9-.32h-33.14v-15.38h21.25c-2.22-6.02-6.34-13.64-9.83-19.66l16.17-5.55c4.6,6.82,9.83,16.17,12.05,22.36l-7.77,2.85h14.43V0h17.6v25.84h11.73V0h17.76v25.84h14.11l-5.71-1.74c3.8-6.5,7.77-16.01,9.99-22.99l19.82,4.76c-4.44,7.29-8.72,14.43-12.37,19.98h20.61v15.38h-29.81c-2.54,4.6-5.07,8.88-7.45,12.68h31.08v14.75h-55.02v7.13h47.56v13.64h-47.56v6.98h61.68v15.54h-45.98ZM215.62,41.22c2.22,4.12,4.28,8.88,5.39,12.21l-2.7.48h29.65c1.9-3.8,3.8-8.4,5.55-12.68h-37.89Z"/>
    <path class="cls-2" d="M424.9,120.5c14.9,4.44,31.55,10.15,42.49,14.59l-16.65,13.32c-12.21-5.71-34.09-13.48-50.89-18.39l13.32-9.51h-43.28l12.21,8.56c-12.84,7.45-33.14,15.06-49.15,19.03-3.49-3.96-9.99-9.83-14.27-13.48,13.79-3.01,30.12-8.72,40.9-14.11h-24.89V50.42h115.9v70.08h-25.69ZM445.04,44.55h-103.21V4.91h103.21v39.64ZM353.4,70.08h77.69v-6.82h-77.69v6.82ZM353.4,88.79h77.69v-6.66h-77.69v6.66ZM353.4,107.81h77.69v-6.98h-77.69v6.98ZM424.9,19.66h-64.05v10.31h64.05v-10.31Z"/>
  </g>
  <g>
    <path class="cls-1" d="M555.5,115.12c5.65,3.57,12.78,6.64,20.12,8.32-2.48,2.28-5.85,6.44-7.53,9.41-4.06-1.39-8.23-3.27-11.99-5.55-.89,9.61-2.08,14.37-4.26,16.65-2.08,1.88-4.36,2.58-7.23,2.87-2.58.3-7.13.2-11.89.1-.2-2.87-1.29-6.74-2.87-9.22,3.96.4,7.83.5,9.51.5,1.49,0,2.38-.2,3.17-.89.89-.89,1.59-2.97,2.08-7.14h-16.95c-4.16,8.62-12.49,14.27-30.42,17.84-.99-2.77-3.67-6.84-5.65-9.02,12.19-1.88,19.03-4.76,22.89-8.82h-15.86v-3.37c-3.47,1.78-7.33,3.47-11.4,4.96-1.19-2.68-4.46-6.64-6.74-8.32,7.63-2.28,13.68-5.05,18.53-8.32h-15.46v-9.12h25.27c.89-1.19,1.68-2.38,2.38-3.57h-16.95v-27.95h67.78v27.95h-38.65c-.6,1.19-1.19,2.38-1.88,3.57h50.74v9.12h-16.75ZM505.65,69.54h-20.81v-9.31h20.81v-5.15h11.5v5.15h21.21v-5.15h11.59v5.15h20.91v9.31h-20.91v3.47h-11.59v-3.47h-21.21v3.47h-11.5v-3.47ZM505.56,85.2h44.59v-3.86h-44.59v3.86ZM505.56,95.6h44.59v-3.96h-44.59v3.96ZM531.32,116.61c-.2,1.78-.5,3.47-.89,5.15h17.64c-2.58-2.08-4.86-4.26-6.94-6.64h-26.56c-2.28,2.38-4.76,4.56-7.73,6.64h12.19c.4-1.59.69-3.27.99-5.15h11.3Z"/>
    <path class="cls-1" d="M642.1,124.93c8.92,5.15,20.81,9.61,31.71,11.99-2.48,2.28-5.75,6.64-7.33,9.41-11.59-3.17-24.18-9.12-33.99-16.25v17.34h-11.59v-16.95c-9.81,7.13-22.59,13.18-34.19,16.35-1.78-2.87-5.05-7.23-7.53-9.71,11.3-2.38,23.59-6.94,32.8-12.19h-29.53v-9.41h38.45v-3.86h-27.25v-26.76c-1.78,1.68-3.67,3.27-5.65,4.86-1.88-2.68-5.75-6.24-8.32-7.93,11-7.93,19.03-18.33,23.49-26.95l12.19,2.28c-1.59,2.87-3.37,5.65-5.35,8.52h14.07c1.68-3.57,3.37-7.53,4.36-10.7l13.28,1.59c-1.68,3.17-3.57,6.34-5.35,9.12h29.63v9.12h-31.12v4.06h26.26v7.73h-26.26v4.16h26.36v7.73h-26.36v4.26h33.99v8.92h-36.37v3.86h38.95v9.41h-29.33ZM623.57,74.79h-18.73v4.06h18.73v-4.06ZM623.57,86.58h-18.73v4.16h18.73v-4.16ZM604.84,102.74h18.73v-4.26h-18.73v4.26Z"/>
  </g>
</svg>