<?xml version="1.0" encoding="UTF-8"?>
<svg id="_レイヤー_1" xmlns="http://www.w3.org/2000/svg" viewBox="0 0 180 90">
  <defs>
    <style>
      .cls-1 {
        fill: #ff4545;
      }

      .cls-2 {
        fill: #ffff32;
      }

      .cls-3 {
        fill: #4e4d4d;
      }
    </style>
  </defs>
  <rect class="cls-2" width="180" height="90"/>
  <g>
    <path class="cls-1" d="M32.72,15.85c.07-.47.14-.94.22-1.44h-13.28v-4.79h13.79c.07-1.01.11-1.98.14-2.88l6.19.14c-.14.94-.25,1.84-.43,2.74h12.56v4.79h-13.46l-.32,1.44h10.22v17.42h-19.69V15.85h4.07ZM52.34,39.61h-25.99v1.55h-5.18v-24.15h5.18v17.78h25.99v4.82ZM43.16,19.45h-9.58v1.15h9.58v-1.15ZM43.16,23.95h-9.58v1.19h9.58v-1.19ZM43.16,28.49h-9.58v1.19h9.58v-1.19Z"/>
    <path class="cls-1" d="M68.94,16.72c-1.04,1.8-2.34,3.67-3.74,5.47v18.9h-5.26v-13c-.79.72-1.55,1.44-2.3,2.05-.72-1.12-2.48-3.49-3.53-4.57,3.64-2.52,7.56-6.7,9.86-10.76l4.97,1.91ZM67.68,8.98c-2.74,3.56-6.73,7.42-10.29,9.86-.65-1.19-1.98-3.28-2.88-4.32,2.99-1.87,6.44-5.15,8.14-7.63l5.04,2.09ZM88.49,23.84h-4.72v11.38c0,2.66-.47,4.1-2.27,4.89-1.73.79-4.14.86-7.2.86-.18-1.55-.86-3.85-1.55-5.36,1.76.11,4.14.11,4.79.11s.86-.14.86-.65v-11.23h-9.86v-4.97h19.94v4.97ZM87.59,13.84h-17.53v-4.97h17.53v4.97Z"/>
    <path class="cls-1" d="M104.72,15.85c.07-.47.14-.94.22-1.44h-13.28v-4.79h13.79c.07-1.01.11-1.98.14-2.88l6.19.14c-.14.94-.25,1.84-.43,2.74h12.56v4.79h-13.46l-.32,1.44h10.22v17.42h-19.69V15.85h4.07ZM124.34,39.61h-25.99v1.55h-5.18v-24.15h5.18v17.78h25.99v4.82ZM115.16,19.45h-9.58v1.15h9.58v-1.15ZM115.16,23.95h-9.58v1.19h9.58v-1.19ZM115.16,28.49h-9.58v1.19h9.58v-1.19Z"/>
    <path class="cls-1" d="M133.17,7h4.61v14.4c0,7.27-.68,14.65-6.34,19.69-.83-1.01-2.63-2.63-3.78-3.31,4.93-4.28,5.51-10.26,5.51-16.38V7ZM131.91,28.67h-4.14V11.5h4.14v17.17ZM160.34,27.16h-2.45v7.02c0,1.91-.22,3.06-1.4,3.74-1.12.68-2.48.72-4.18.72-.11-1.3-.61-3.02-1.12-4.21.58.04,1.3.04,1.55.04s.36-.11.36-.4v-2.99h-1.94v10.04h-4.82v-10.04h-1.87v7.63h-4.61v-11.55h-1.73v-6.33h22.21v6.33ZM157.82,19.99h-17.75v-3.6h12.92v-.79h-11.41v-3.42h11.41v-.86h-12.56v-3.6h17.39v12.27ZM146.34,26.87v-2.16h-3.6v2.16h3.6ZM155.52,24.71h-4.36v2.16h4.36v-2.16Z"/>
    <path class="cls-3" d="M60.56,66.87c0-10.25,5.8-16.05,14.32-16.05s14.33,5.84,14.33,16.05-5.8,16.38-14.33,16.38-14.32-6.13-14.32-16.38ZM81.56,66.87c0-6.05-2.56-9.62-6.68-9.62s-6.64,3.57-6.64,9.62,2.52,9.91,6.64,9.91,6.68-3.87,6.68-9.91Z"/>
    <path class="cls-3" d="M95,51.37h7.52v12.39h.13l8.86-12.39h8.23l-9.45,12.56,11.22,18.74h-8.19l-7.39-12.81-3.4,4.62v8.19h-7.52v-31.3Z"/>
  </g>
</svg>