<?xml version="1.0" encoding="UTF-8"?>
<svg id="_レイヤー_1" xmlns="http://www.w3.org/2000/svg" viewBox="0 0 180 90">
  <defs>
    <style>
      .cls-1 {
        fill: #ff4545;
      }

      .cls-2 {
        fill: #ffff32;
      }

      .cls-3 {
        fill: #4e4d4d;
      }
    </style>
  </defs>
  <rect class="cls-2" width="180" height="90"/>
  <g>
    <path class="cls-1" d="M41.71,25.51c3.02,3.67,7.63,7.13,12.27,9.14-1.22,1.04-2.95,3.17-3.82,4.57-3.92-2.12-7.67-5.29-10.76-8.96v10.22h-5.58v-10.08c-3.13,3.56-6.91,6.66-10.87,8.75-.86-1.33-2.63-3.46-3.85-4.54,4.68-2.02,9.32-5.44,12.38-9.11h-11.05v-5.18h13.39v-3.71h-10.62v-5.18h10.62v-5.15h5.58v5.15h10.87v5.18h-10.87v3.71h13.61v5.18h-11.3Z"/>
    <path class="cls-1" d="M88.94,9.16c-1.22,3.78-3.1,6.8-5.54,9.29,2.02,1.01,4.28,1.8,6.77,2.34-1.08,1.01-2.48,2.95-3.17,4.21-2.88-.79-5.4-1.91-7.63-3.35-2.34,1.51-5,2.7-7.92,3.6-.5-1.04-1.4-2.56-2.27-3.67.65,1.55,1.12,3.02,1.33,4.21l-3.64,1.62c-.07-.5-.18-1.04-.36-1.62l-1.19.07v2.59l3.06-1.01c.83,2.09,1.76,4.75,2.2,6.55l-3.82,1.37c-.29-1.37-.86-3.28-1.44-5.08v10.19h-4.54v-10.51c-.36,2.99-1.04,6.01-1.87,7.99-.9-.58-2.84-1.48-3.92-1.87.94-2.09,1.44-5.33,1.66-8.32l4.14.72v-2.3l-5,.32-.43-4.5,2.74-.11c.43-.54.86-1.12,1.3-1.73-1.04-1.58-2.63-3.42-4.03-4.79l2.45-3.6.65.61c.94-1.98,1.84-4.25,2.38-6.08l4.5,1.66c-1.33,2.52-2.77,5.29-4.03,7.31.25.29.5.61.72.9,1.15-1.91,2.2-3.82,2.99-5.51l4.21,1.91c-1.37,2.09-2.95,4.39-4.54,6.55l2.77-1.15c.5.9.97,1.87,1.4,2.84,2.34-.58,4.5-1.44,6.41-2.52-1.44-1.51-2.7-3.2-3.74-5.11l2.77-.9h-4.32v-4.46h14.54l.94-.18,3.49,1.51ZM65.11,21.65c-.29-.65-.58-1.33-.86-1.94-.54.72-1.08,1.4-1.58,2.05l2.45-.11ZM82.1,34.97h7.52v4.57h-20.45v-4.57h7.78v-3.28h-5.69v-4.57h5.69v-3.78h5.15v3.78h6.05v4.57h-6.05v3.28ZM76.37,12.3c.76,1.15,1.66,2.23,2.74,3.2,1.04-.97,1.94-2.05,2.7-3.2h-5.44Z"/>
    <path class="cls-1" d="M97.8,29.79c.32,2.12.4,4.9.29,6.66l-2.23.29c.14-1.8.07-4.5-.18-6.62-.18,3.24-.58,6.33-2.02,8.32l-2.56-1.37c1.26-1.84,1.69-4.82,1.84-7.92l2.77.54v.32l2.09-.22ZM119.86,30.37c1.4,2.56,3.56,4.75,6.3,5.98-1.08.94-2.59,2.84-3.31,4.1-2.74-1.51-4.75-4.03-6.23-7.02-1.44,2.7-3.82,5.22-7.78,7.16-.47-.79-1.4-1.91-2.27-2.77-.14.47-.29.79-.47,1.04-.65.9-1.33,1.26-2.23,1.4-.79.18-1.91.22-3.17.18-.07-1.22-.47-2.92-1.08-4,.83.11,1.44.11,1.87.11.4,0,.65-.11.94-.47.22-.29.4-1.01.54-2.41l-1.15.4c-.18-1.26-.79-3.2-1.4-4.64l1.91-.61c.32.65.61,1.37.86,2.09.04-.83.07-1.84.14-2.95h-10.12V7.54h13.53v4.18h-3.35v1.3h2.66v1.69c3.13-1.94,6.12-5.58,7.49-8.42h4.5c2.09,3.2,5.08,6.44,8.21,7.85-.9,1.22-1.94,3.09-2.59,4.54-.65-.4-1.33-.86-1.98-1.4v1.8h-3.13v1.37h6.19v9.93h-4.9ZM97.47,11.72v1.3h1.83v-1.3h-1.83ZM97.47,16.9v1.58h1.83v-1.58h-1.83ZM97.47,23.96h1.83v-1.58h-1.83v1.58ZM100.21,29.5c.5,1.87.94,4.28,1.01,5.83l-2.2.43c-.04-1.58-.43-4.03-.9-5.9l2.09-.36ZM107.69,23.96s0,1.12-.04,1.66c-.22,5.29-.4,8.64-.76,10.73,3.1-1.69,4.86-3.78,5.83-5.98h-4.64v-9.93h5.87v-1.37h-3.31v-1.87c-.83.72-1.73,1.4-2.63,1.94-.43-1.08-1.22-2.56-1.94-3.67v1.44h-2.66v1.58h2.66v3.89h-2.66v1.58h4.28ZM113.78,26.66c.11-.86.14-1.69.18-2.52h-1.66v2.52h1.48ZM119.32,15.1c-1.33-1.4-2.52-2.92-3.35-4.28-.76,1.33-1.87,2.84-3.17,4.28h6.51ZM120.33,24.14h-1.76c0,.83-.04,1.66-.11,2.52h1.87v-2.52Z"/>
    <path class="cls-1" d="M148.23,21.4c-1.08.83-2.23,1.62-3.38,2.38h12.09v16.59h-5.47v-.86h-11.16v1.01h-5.22v-11.45c-1.62.72-3.31,1.37-4.97,1.98-.61-1.12-2.16-3.28-3.1-4.32,4.39-1.33,8.6-3.13,12.45-5.33h-11.16v-4.57h11.16v-2.52h-8.06v-4.5h8.06v-3.53h5.18v3.53h7.2v1.87c1.3-1.4,2.45-2.92,3.49-4.46l4.5,2.3c-1.84,2.63-3.92,5.08-6.26,7.31h7.31v4.57h-12.67ZM151.47,28.03h-11.16v1.62h11.16v-1.62ZM151.47,35.15v-1.62h-11.16v1.62h11.16ZM144.67,16.83h1.66c1.04-.79,2.02-1.66,2.95-2.52h-4.61v2.52Z"/>
    <path class="cls-3" d="M58.55,64.24c2.34,6.51,6.51,11.77,13.14,14.33-1.3,1.15-3.06,3.46-3.89,4.97-6.33-2.92-10.29-7.7-13.07-14.07-2.05,5.54-5.87,10.55-12.96,14.07-.83-1.44-2.41-3.31-3.96-4.46,7.88-3.56,11.19-8.96,12.63-14.83h-11.91v-5.44h12.78c.25-3.17.22-6.33.25-9.32h5.76c-.04,2.99-.07,6.16-.36,9.32h13.82v5.44h-12.24Z"/>
    <path class="cls-3" d="M101.32,63.88c0,3.92,1.4,11.05,6.7,15.23-.9,1.15-2.38,3.31-3.13,4.61-3.6-2.7-5.62-8.39-6.08-11.52-.54,3.2-2.92,8.71-6.91,11.52-.22-.47-.58-1.08-.97-1.73h-9.79v1.66h-4.54v-11.52c-.29.32-.61.61-.9.9-.47-1.08-1.84-3.35-2.66-4.36,1.8-1.62,3.35-3.74,4.64-6.19h-3.96v-4.14h2.66c-.97-.65-2.16-1.4-2.95-1.8,1.66-1.73,2.99-4.46,3.71-7.09l4.57,1.08c-.18.61-.4,1.22-.61,1.84h9.97v4h-6.16c-.18.65-.4,1.33-.61,1.98h7.09v1.66c1.08-3.1,1.76-6.8,2.12-10.55l4.93.68c-.22,1.98-.54,3.92-.94,5.79h6.05l.76-.18,3.49.86c-.43,3.67-1.12,7.85-1.76,10.62l-4.1-1.19c.22-1.44.43-3.38.61-5.4h-1.22v3.24ZM79.51,58.34c.25-.65.47-1.3.65-1.98h-.94c-.4.72-.83,1.37-1.26,1.98h1.55ZM83,69.39v-.97h-1.87v.97h1.87ZM81.13,73.78h1.87v-.97h-1.87v.97ZM81.13,78.17h1.87v-.97h-1.87v.97ZM82.71,62.48c-.32.76-.68,1.51-1.04,2.23h1.69c.25-.76.5-1.55.68-2.23h-1.33ZM90.09,64.71c-.32-.14-.58-.29-.83-.4.4-.54.76-1.15,1.08-1.84h-3.96l2.45.4c-.29.65-.61,1.26-.86,1.84h2.12ZM90.41,78.17c4.64-4.25,5.83-10.62,5.83-14.29v-2.99c-.72,2.27-1.58,4.28-2.56,5.9-.61-.47-1.84-1.19-2.95-1.76v3.38h-3.24v.97h2.95v3.42h-2.95v.97h2.95v3.42h-2.95v.97h2.92Z"/>
    <path class="cls-3" d="M117.99,74.97c1.22,2.3,3.53,3.28,6.95,3.42,4.68.22,13.75.11,19.22-.36-.54,1.15-1.29,3.42-1.55,4.86-4.86.25-12.92.32-17.67.11-4.18-.18-6.91-1.15-9.04-3.92-1.26,1.37-2.59,2.66-4.28,4.25l-2.41-5c1.22-.83,2.63-1.84,3.92-2.92v-7.16h-3.35v-4.82h8.21v11.55ZM113.82,59.06c-.76-1.73-2.77-4.36-4.5-6.23l4.14-2.59c1.76,1.73,3.92,4.14,4.82,5.9l-4.46,2.92ZM118.46,69.86c.58-.11,1.22-.22,1.91-.36v-17.6l2.41.61c1.55-.86,3.13-1.98,4.21-2.99l3.17,3.53v-1.62h12.24v18.21c0,2.02-.32,3.2-1.58,3.96-1.22.72-2.77.79-4.82.79-.14-1.04-.61-2.59-1.12-3.74v6.88h-4.72v-23.87c-1.62.9-3.38,1.69-5,2.34v12.45c1.26-.29,2.56-.61,3.85-.9l.58,4.43c-3.28.86-6.88,1.76-9.79,2.48l-1.33-4.61ZM134.87,55.78v14.25c.9.04,1.87.04,2.2.04.4,0,.54-.14.54-.54v-13.75h-2.74Z"/>
  </g>
</svg>