<?xml version="1.0" encoding="UTF-8"?>
<svg id="_レイヤー_1" xmlns="http://www.w3.org/2000/svg" viewBox="0 0 400 60">
  <defs>
    <style>
      .cls-1 {
        fill: #fff;
      }

      .cls-2 {
        fill: #4e4d4d;
      }
    </style>
  </defs>
  <rect class="cls-2" width="400" height="60"/>
  <g>
    <path class="cls-1" d="M37.59,38.85c-1.02-.87-2.88-2.05-4.62-3.01.62,3.26,1.86,5.58,4.28,5.77.43.06.68-1.12.87-3.01.46.62,1.18,1.3,1.67,1.64-.37,3.19-1.36,4.34-3.16,3.97-5.27-.62-6.45-6.17-6.82-12.77h-4.12v12.43h-2.79v-12.43h-4.43c-.19,4.37-1.15,9.15-5.4,12.8-.5-.59-1.49-1.52-2.17-1.95,3.72-3.16,4.62-7.16,4.81-10.85h-4.28v-2.67h4.31v-3.41c-1.05.5-2.14.96-3.13,1.3-.31-.56-1.15-1.74-1.67-2.26,2.98-.78,6.26-2.14,8.06-3.72l2.51.96c-.84.78-1.86,1.55-3.01,2.23v4.9h4.4v-7.97h2.79v7.97h6.7c.03,1.86.12,3.69.31,5.33l.59-.56c1.98.93,4.65,2.42,6.02,3.5l-1.71,1.8ZM37.22,25.02c-.99-.9-2.95-2.17-4.68-3.16.68,3.01,2.05,5.3,4.59,5.46.4.06.65-.81.81-2.33.5.59,1.15,1.21,1.71,1.55-.43,2.6-1.4,3.6-3.07,3.32-4.87-.62-6.39-4.9-7.04-9.98H13.13v-2.6h18.82c.06,1.18.15,2.33.34,3.44l.96-.9c1.89.93,4.43,2.39,5.67,3.41l-1.71,1.8ZM38.9,17.77c-1.12,1.15-2.23,2.33-3.16,3.13l-1.74-1.02c.81-.9,1.89-2.36,2.45-3.35l2.45,1.24ZM34,33.64c.81-.87,1.95-2.33,2.54-3.32l2.45,1.21c-1.15,1.18-2.33,2.33-3.29,3.13l-1.71-1.02Z"/>
    <path class="cls-1" d="M69.74,32.19l-2.02,2.79c-1.49-1.61-2.76-3.44-3.88-5.55.56,7.5-1.83,14.6-10.45,14.6-4.93,0-8.77-2.73-8.77-8.09s2.64-9.61,5.43-12.96c-1.4.22-3.69.46-4.74.62-.62.06-1.12.16-1.77.25l-.25-3.22c.5.03,1.15.03,1.71,0,2.85-.12,8.03-.84,9.95-1.55l.93,2.73c-.43.16-1.15.37-1.61.62-2.05,1.52-6.54,6.67-6.54,12.84,0,4.06,2.67,5.52,5.74,5.52,7.07,0,9.46-7.41,7.22-18.91-.22-.65-.4-1.3-.62-1.98l3.07-.87c.62,3.81,1.95,8.96,6.6,13.18ZM67.85,21.68l-1.92.68c-.53-1.43-1.24-3.22-1.92-4.46l1.86-.62c.62,1.21,1.52,3.13,1.98,4.4ZM71.2,20.5l-1.95.68c-.53-1.43-1.27-3.19-1.98-4.43l1.86-.65c.65,1.21,1.52,3.1,2.08,4.4Z"/>
    <path class="cls-1" d="M79.16,37.61c1.36,2.14,3.91,3.13,7.32,3.26,3.44.12,10.32.03,14.2-.22-.34.68-.81,2.05-.96,2.95-3.5.15-9.74.22-13.27.06-3.94-.16-6.6-1.18-8.56-3.57-1.46,1.27-2.95,2.51-4.56,3.84l-1.49-2.98c1.4-.87,3.04-2.02,4.5-3.19v-7.29h-3.97v-2.67h6.79v9.8ZM77.73,23.13c-.99-1.46-3.22-3.53-5.18-4.9l2.14-1.74c1.92,1.33,4.25,3.26,5.3,4.74l-2.26,1.89ZM91.28,17.21c.62,9.15,2.79,16.49,9.05,19.69-.68.46-1.71,1.49-2.26,2.2-4.09-2.42-6.48-6.42-7.88-11.44-1.58,5.02-4.09,8.84-7.75,11.44-.46-.56-1.58-1.64-2.26-2.17,4.4-2.73,6.91-7.44,8.06-13.58l1.05.16c-.19-1.15-.31-2.36-.43-3.57h-5.52v-2.73h7.94Z"/>
    <path class="cls-1" d="M110.87,18.85c1.67,0,5.43-.19,6.79-.28.65-.06,1.33-.19,1.8-.37l1.95,1.55c-.37.37-.68.74-.93,1.15-.84,1.37-2.11,4.28-3.35,7.07,2.82.37,5.46,1.24,7.75,2.29.09-.62.16-1.21.19-1.77.06-1.05.06-2.17-.03-3.07l3.22.34c-.12,2.14-.31,4.12-.62,5.89,1.4.81,2.57,1.58,3.53,2.26l-1.43,3.35c-.9-.77-1.89-1.55-2.98-2.33-1.3,3.81-3.69,6.67-8.03,8.87l-2.6-2.14c4.81-2.05,7.01-5.21,8.03-8.34-2.42-1.33-5.21-2.39-8.22-2.7-1.15,2.7-2.57,6.08-3.72,7.84-1.18,1.71-2.48,2.39-4.31,2.39-2.48,0-4.34-1.74-4.34-4.59,0-4.68,4.28-8.25,10.42-8.46,1.02-2.26,2.08-4.68,2.91-6.39-1.24.03-4.56.19-5.95.25-.65.03-1.64.12-2.42.25l-.12-3.19c.81.09,1.8.12,2.45.12ZM108.05,37.7c.65,0,1.15-.28,1.74-1.05.99-1.33,2.02-3.78,3.01-6.05-4.06.43-6.39,2.91-6.39,5.24,0,1.24.78,1.86,1.64,1.86Z"/>
    <path class="cls-1" d="M145.25,21.58c1.58-.25,3.13-.59,4.56-1.05l.09,2.85c-1.55.43-3.47.84-5.55,1.12-1.52,4.37-4.22,9.77-6.73,13.18l-2.98-1.52c2.54-3.04,5.12-7.81,6.51-11.32-.77.03-1.52.06-2.26.06-1.18,0-2.48-.03-3.72-.09l-.22-2.88c1.21.12,2.7.19,3.94.19,1.02,0,2.11-.03,3.19-.12.46-1.74.84-3.66.9-5.3l3.41.34c-.25,1.08-.68,2.82-1.15,4.56ZM153.69,30.26c.03,1.02.12,2.82.22,4.59,2.67.96,4.84,2.51,6.42,3.91l-1.64,2.64c-1.21-1.12-2.79-2.45-4.65-3.47v.87c0,2.64-1.58,4.78-5.67,4.78-3.6,0-6.51-1.55-6.51-4.78,0-2.91,2.64-4.96,6.48-4.96.93,0,1.8.09,2.64.22-.09-2.45-.25-5.36-.31-7.41h3.04c-.06,1.3-.03,2.39,0,3.63ZM147.95,40.74c2.36,0,3.13-1.3,3.13-2.98,0-.28,0-.65-.03-1.05-.9-.25-1.86-.4-2.88-.4-2.05,0-3.44.93-3.44,2.2,0,1.33,1.12,2.23,3.22,2.23ZM152.26,23.47l1.58-2.39c2.23.99,5.89,3.04,7.44,4.16l-1.77,2.57c-1.71-1.43-5.15-3.38-7.25-4.34Z"/>
    <path class="cls-1" d="M170.74,21.02c-.16,3.44-.37,10.6-.37,14.88,0,3.29,2.02,4.4,4.71,4.4,5.43,0,8.68-3.07,10.91-6.39l2.2,2.7c-2.05,2.95-6.23,6.95-13.18,6.95-4.71,0-7.88-2.02-7.88-7.16,0-4.4.31-12.4.31-15.38,0-1.3-.12-2.57-.34-3.6l3.97.03c-.19,1.15-.31,2.45-.34,3.57Z"/>
    <path class="cls-1" d="M189.89,36.84l2.54-2.23c2.2,1.8,5.08,4.71,6.85,6.85l-2.64,2.23c-1.95-2.39-4.59-5.02-6.76-6.85Z"/>
    <path class="cls-1" d="M229.76,41.08c1.12,0,1.3-.5,1.4-3.91.62.47,1.83.9,2.63,1.12-.34,4.31-1.15,5.46-3.78,5.46h-4.4c-3.16,0-3.94-.87-3.94-3.69v-7.13h-4.81c-.68,5.49-2.45,9.36-9.89,11.38-.25-.74-1.05-1.95-1.67-2.54,6.57-1.55,7.94-4.56,8.46-8.84h-7.72v-2.76h27.32v2.76h-8.77v7.1c0,.9.22,1.05,1.39,1.05h3.78ZM209.64,25.77h-2.91v-6.82h11.38v-3.16h3.07v3.16h11.53v6.82h-3.07v-4.09h-20v4.09ZM211.47,27.19v-2.6h16.4v2.6h-16.4Z"/>
    <path class="cls-1" d="M252.14,40.84h11.75v2.6h-26.17v-2.6h11.38v-4.5h-8.87v-2.51h8.87v-4.28h-7.41v-2.29c-1.15.84-2.36,1.61-3.57,2.29-.37-.68-1.18-1.71-1.83-2.33,5.3-2.82,10.36-7.63,12.68-11.54h2.95c3.26,4.62,8.46,8.9,13.27,11.19-.68.71-1.36,1.71-1.89,2.54-1.12-.62-2.26-1.36-3.41-2.17v2.29h-7.75v4.28h9.02v2.51h-9.02v4.5ZM259.52,27.01c-3.54-2.54-6.95-5.67-8.93-8.46-1.86,2.73-4.99,5.86-8.56,8.46h17.49Z"/>
    <path class="cls-1" d="M292.72,26.11c-1.27,4.9-3.53,8.68-6.48,11.56,2.51,1.8,5.61,3.1,9.27,3.91-.68.65-1.52,1.89-1.95,2.7-3.88-.96-7.07-2.48-9.7-4.56-2.7,2.01-5.77,3.47-9.12,4.5-.37-.77-1.12-1.98-1.71-2.63,3.13-.81,6.05-2.08,8.56-3.91-2.45-2.54-4.28-5.67-5.67-9.46h-1.64c-.16,5.08-.99,11.56-4.06,15.94-.53-.5-1.77-1.36-2.48-1.71,3.38-4.68,3.69-11.53,3.69-16.43v-8.43h22.85v2.85h-19.97v4.99h15.81l.56-.12,2.05.81ZM278.96,28.22c1.15,2.95,2.79,5.49,4.93,7.53,2.14-2.02,3.84-4.53,4.99-7.53h-9.92Z"/>
    <path class="cls-1" d="M319.91,31.84c-.53.68-1.05,1.3-1.52,1.83h8.22v1.95h-27.69v-1.95h8.19c-.28-.53-.68-1.15-1.12-1.61l1.05-.31h-4.93v-1.58c-.68.37-1.43.71-2.17.99-.25-.46-.93-1.36-1.36-1.8,2.26-.71,4.19-1.8,5.58-3.32-1.92.25-3.72.46-5.33.65l-.43-2.11c.71-.03,1.52-.09,2.39-.16.46-.5.93-1.05,1.4-1.64-.93-.9-2.29-1.95-3.41-2.73l1.21-1.61c.28.19.59.37.9.59.71-1.09,1.46-2.36,1.89-3.32l2.05.81c-.81,1.21-1.71,2.51-2.51,3.53.43.34.84.68,1.21.99.74-.99,1.4-1.98,1.92-2.85l1.98.9c-1.18,1.67-2.67,3.57-4.09,5.12l2.23-.16c.25-.5.43-.99.59-1.55l2.23.31c-.96,3.22-3.04,5.52-5.8,7.1h8.65v-1.61h2.7v1.61h9.95v1.83h-4.28l.31.09ZM303.26,36.68h19.35v7.53h-2.79v-.74h-13.92v.78h-2.64v-7.57ZM305.9,38.23v1.18h13.92v-1.18h-13.92ZM319.82,41.95v-1.21h-13.92v1.21h13.92ZM308.44,26.39v-9.67h8.59v7.07h-2.17c1.36,1.12,2.82,2.76,3.44,3.94l-1.77,1.02c-.19-.4-.46-.84-.78-1.27-2.95.43-5.86.84-8.22,1.12l-.5-2.08,1.39-.12ZM315.69,33.67c.4-.56.87-1.27,1.24-1.92h-8.28c.46.56.9,1.27,1.08,1.77l-.5.16h6.45ZM310.7,18.26v1.21h4.09v-1.21h-4.09ZM310.7,22.2h4.09v-1.18h-4.09v1.18ZM310.7,26.17l3.63-.37c-.37-.4-.78-.81-1.18-1.15l1.61-.87h-4.06v2.39ZM320.75,29.4h-2.36v-12.71h6.36l.34-.12,1.71.84c-.74,1.55-1.55,3.01-2.36,4.43,1.64,1.3,2.39,2.54,2.39,3.63s-.43,1.86-1.21,2.33c-.37.25-.93.4-1.4.46-.59.06-1.52.09-2.26.03-.03-.62-.31-1.46-.71-2.02.81.06,1.49.09,1.98.06.31-.03.62-.06.81-.16.34-.19.53-.56.5-1.02,0-.78-.71-1.71-2.45-2.95.59-1.21,1.15-2.39,1.58-3.47h-2.92v10.67Z"/>
    <path class="cls-1" d="M356.74,20.62v6.26h-2.76v-3.81h-20.28v3.81h-2.67v-6.26h4.09c-.56-1.05-1.49-2.36-2.33-3.35l2.51-1.05c1.05,1.18,2.29,2.82,2.82,3.97l-.96.43h5.49c-.43-1.18-1.36-2.82-2.2-4.06l2.51-.87c.96,1.27,2.02,3.07,2.42,4.22l-1.83.71h5.43c1.02-1.3,2.26-3.22,2.98-4.62l3.07.96c-.96,1.27-1.98,2.57-2.92,3.66h4.62ZM344.89,32.37c-.31.78-.62,1.55-.9,2.23h10.6v9.64h-2.88v-1.08h-15.53v1.12h-2.76v-9.67h7.75c.22-.71.4-1.52.59-2.23h-6.02v-7.29h16.22v7.29h-7.07ZM351.72,37.12h-15.53v3.57h15.53v-3.57ZM338.41,30.2h10.73v-2.98h-10.73v2.98Z"/>
    <path class="cls-1" d="M378.59,37.05c2.73,1.92,6.73,3.5,10.51,4.22-.65.62-1.49,1.8-1.92,2.57-4.03-1.09-8.19-3.16-11.1-5.83v6.23h-2.82v-6.01c-2.95,2.48-7.13,4.5-11.01,5.58-.43-.74-1.24-1.83-1.89-2.45,3.69-.78,7.72-2.39,10.45-4.31h-9.58v-2.42h12.03v-1.89h-9.15v-2.17h9.15v-1.86h-10.67v-2.29h6.36c-.28-.87-.81-1.98-1.3-2.82l.74-.12h-7.04v-2.42h4.59c-.47-1.21-1.4-2.91-2.26-4.19l2.51-.84c.96,1.33,2.05,3.22,2.48,4.43l-1.58.59h3.41v-5.3h2.7v5.3h3.07v-5.3h2.73v5.3h3.35l-1.18-.37c.74-1.24,1.71-3.19,2.17-4.59l2.98.74c-.84,1.52-1.77,3.07-2.57,4.22h4.46v2.42h-5.98c-.59,1.05-1.21,2.08-1.74,2.95h6.57v2.29h-10.98v1.86h9.52v2.17h-9.52v1.89h12.22v2.42h-9.7ZM370.62,23.47c.56.9,1.12,2.02,1.33,2.76l-.9.19h6.54c.46-.84.96-1.95,1.36-2.95h-8.34Z"/>
  </g>
</svg>